<svg xmlns="http://www.w3.org/2000/svg" width="1200" height="630" viewBox="0 0 1200 630">
  <defs>
    <linearGradient id="bg" x1="0" y1="0" x2="1" y2="1">
      <stop offset="0%" stop-color="#040506"/>
      <stop offset="55%" stop-color="#090B10"/>
      <stop offset="100%" stop-color="#040506"/>
    </linearGradient>
    <radialGradient id="redFluid" cx="0" cy="0" r="1" gradientUnits="userSpaceOnUse" gradientTransform="translate(370 132) rotate(6) scale(500 180)">
      <stop stop-color="#FF6B6B" stop-opacity="0.22"/>
      <stop offset="1" stop-color="#FF6B6B" stop-opacity="0"/>
    </radialGradient>
    <radialGradient id="blueGlow" cx="0" cy="0" r="1" gradientUnits="userSpaceOnUse" gradientTransform="translate(972 158) rotate(-18) scale(230 140)">
      <stop stop-color="#2F80FF" stop-opacity="0.16"/>
      <stop offset="1" stop-color="#2F80FF" stop-opacity="0"/>
    </radialGradient>
    <linearGradient id="tileGradient" x1="120" y1="82" x2="370" y2="360" gradientUnits="userSpaceOnUse">
      <stop stop-color="#2D3139"/>
      <stop offset="0.52" stop-color="#121418"/>
      <stop offset="1" stop-color="#050608"/>
    </linearGradient>
    <linearGradient id="tileSheen" x1="150" y1="96" x2="336" y2="334" gradientUnits="userSpaceOnUse">
      <stop stop-color="#FFFFFF" stop-opacity="0.26"/>
      <stop offset="0.34" stop-color="#FFFFFF" stop-opacity="0.06"/>
      <stop offset="1" stop-color="#FFFFFF" stop-opacity="0"/>
    </linearGradient>
    <linearGradient id="tileEdge" x1="116" y1="82" x2="380" y2="364" gradientUnits="userSpaceOnUse">
      <stop stop-color="#A9C8FF" stop-opacity="0.95"/>
      <stop offset="0.28" stop-color="#6E7C98" stop-opacity="0.42"/>
      <stop offset="0.7" stop-color="#354154" stop-opacity="0.2"/>
      <stop offset="1" stop-color="#7DA5FF" stop-opacity="0.72"/>
    </linearGradient>
    <linearGradient id="markStroke" x1="198" y1="128" x2="315" y2="280" gradientUnits="userSpaceOnUse">
      <stop stop-color="#FFFFFF"/>
      <stop offset="0.55" stop-color="#F3F7FF"/>
      <stop offset="1" stop-color="#D9E3F3"/>
    </linearGradient>
    <radialGradient id="accentGlow" cx="0" cy="0" r="1" gradientUnits="userSpaceOnUse" gradientTransform="translate(314 170) rotate(90) scale(28)">
      <stop stop-color="#79C6FF"/>
      <stop offset="0.55" stop-color="#2F80FF"/>
      <stop offset="1" stop-color="#125BFF"/>
    </radialGradient>
    <filter id="tileShadow" x="-20%" y="-20%" width="140%" height="140%">
      <feDropShadow dx="0" dy="24" stdDeviation="18" flood-color="#000000" flood-opacity="0.42"/>
      <feDropShadow dx="0" dy="0" stdDeviation="10" flood-color="#8AB8FF" flood-opacity="0.12"/>
    </filter>
  </defs>

  <rect width="1200" height="630" fill="url(#bg)"/>
  <ellipse cx="370" cy="132" rx="520" ry="210" fill="url(#redFluid)"/>
  <ellipse cx="972" cy="158" rx="220" ry="134" fill="url(#blueGlow)"/>

  <g filter="url(#tileShadow)">
    <rect x="104" y="76" width="286" height="286" rx="74" fill="url(#tileGradient)"/>
    <rect x="107" y="79" width="280" height="280" rx="71" stroke="url(#tileEdge)" stroke-opacity="0.85" stroke-width="4"/>
    <path
      d="M138 126C138 110.8 150.8 98 166 98H336C359.4 98 372.5 125 358 143.4L246 285.6C235 299.6 214.3 301.8 200.4 290.8L146.6 248.2C141.1 243.9 138 237.3 138 230.3V126Z"
      fill="url(#tileSheen)"
      opacity="0.72"
    />
  </g>

  <path d="M185 153H276" stroke="url(#markStroke)" stroke-width="22" stroke-linecap="round"/>
  <path
    d="M185 153C185 153 186.5 193 228.5 214C270.5 235 276 257.5 276 286"
    stroke="url(#markStroke)"
    stroke-width="22"
    stroke-linecap="round"
    stroke-linejoin="round"
  />
  <path d="M275 154L203 281" stroke="url(#markStroke)" stroke-width="22" stroke-linecap="round"/>
  <path d="M228 281H314" stroke="url(#markStroke)" stroke-width="22" stroke-linecap="round"/>
  <path d="M270 192L296 165" stroke="url(#markStroke)" stroke-width="18" stroke-linecap="round"/>
  <circle cx="314" cy="170" r="18" fill="url(#accentGlow)"/>
  <circle cx="314" cy="170" r="5" fill="#FFFFFF" opacity="0.96"/>

  <text x="458" y="208" font-family="Inter, system-ui, sans-serif" font-size="88" font-weight="600" letter-spacing="-3" fill="#FFFFFF">StockEx</text>
  <text x="458" y="260" font-family="Inter, system-ui, sans-serif" font-size="22" font-weight="500" letter-spacing="6.5" fill="#AAB6C8">RESEARCH AND BROKER SYSTEM</text>
  <text x="458" y="334" font-family="Inter, system-ui, sans-serif" font-size="54" font-weight="600" letter-spacing="-2" fill="#FFFFFF">Deep company research.</text>
  <text x="458" y="398" font-family="Inter, system-ui, sans-serif" font-size="54" font-weight="600" letter-spacing="-2" fill="#FF6B6B">Connected execution path.</text>
  <text x="458" y="468" font-family="Inter, system-ui, sans-serif" font-size="24" font-weight="400" fill="#94A3B8">Scanner, stock detail, tracking, portfolio context, and broker-ready follow-through in one product.</text>
</svg>
