<svg xmlns="http://www.w3.org/2000/svg" width="1200" height="630" viewBox="0 0 1200 630">
  <defs>
    <linearGradient id="bg" x1="0" y1="0" x2="1" y2="1">
      <stop offset="0%" stop-color="#1c1e54"/>
      <stop offset="50%" stop-color="#0d253d"/>
      <stop offset="100%" stop-color="#1c1e54"/>
    </linearGradient>
    <linearGradient id="mesh1" x1="0" y1="0" x2="1" y2="1">
      <stop offset="0%" stop-color="#533AFD" stop-opacity="0.15"/>
      <stop offset="100%" stop-color="#533AFD" stop-opacity="0"/>
    </linearGradient>
    <linearGradient id="mesh2" x1="1" y1="0" x2="0" y2="1">
      <stop offset="0%" stop-color="#F96BEE" stop-opacity="0.1"/>
      <stop offset="100%" stop-color="#F96BEE" stop-opacity="0"/>
    </linearGradient>
  </defs>
  <rect width="1200" height="630" fill="url(#bg)"/>
  <circle cx="200" cy="100" r="300" fill="url(#mesh1)"/>
  <circle cx="1000" cy="500" r="250" fill="url(#mesh2)"/>
  <rect x="100" y="215" width="80" height="120" rx="16" fill="white" opacity="0.9"/>
  <rect x="195" y="165" width="80" height="170" rx="16" fill="white" opacity="0.7"/>
  <rect x="290" y="115" width="80" height="220" rx="16" fill="white" opacity="0.5"/>
  <path d="M334 68c38 28 65 74 80 120" fill="none" stroke="#22C55E" stroke-width="10" stroke-linecap="round"/>
  <text x="440" y="240" font-family="Inter,system-ui,sans-serif" font-size="64" font-weight="600" letter-spacing="-2" fill="white">Equity Lens</text>
  <text x="440" y="290" font-family="Inter,system-ui,sans-serif" font-size="24" font-weight="400" letter-spacing="8" fill="#B9B9F9">INDIA</text>
  <text x="440" y="350" font-family="Inter,system-ui,sans-serif" font-size="20" fill="#94A3B8" font-weight="300">AI-Powered Indian Equity Research Platform</text>
  <text x="440" y="385" font-family="Inter,system-ui,sans-serif" font-size="14" fill="#64748B" font-weight="300">Proprietary scores across 5 dimensions · Live market data · Fair value estimates</text>
  <rect x="100" y="450" rx="20" width="200" height="40" fill="#533AFD"/>
  <text x="200" y="476" font-family="Inter,system-ui,sans-serif" font-size="16" fill="white" text-anchor="middle" font-weight="400">Start Free Trial →</text>
</svg>
