<svg width="512" height="512" viewBox="0 0 64 64" fill="none" xmlns="http://www.w3.org/2000/svg">
  <defs>
    <linearGradient id="stockex_tile" x1="10" y1="8" x2="54" y2="58" gradientUnits="userSpaceOnUse">
      <stop stop-color="#161B23"/>
      <stop offset="0.45" stop-color="#090B10"/>
      <stop offset="1" stop-color="#050608"/>
    </linearGradient>
    <linearGradient id="stockex_inner" x1="14" y1="12" x2="50" y2="52" gradientUnits="userSpaceOnUse">
      <stop stop-color="#FFFFFF" stop-opacity="0.10"/>
      <stop offset="0.32" stop-color="#FFFFFF" stop-opacity="0.02"/>
      <stop offset="1" stop-color="#FFFFFF" stop-opacity="0"/>
    </linearGradient>
    <radialGradient id="stockex_glow" cx="0" cy="0" r="1" gradientUnits="userSpaceOnUse" gradientTransform="translate(22 18) rotate(40) scale(34 34)">
      <stop stop-color="#DCE8FF" stop-opacity="0.22"/>
      <stop offset="1" stop-color="#FFFFFF" stop-opacity="0"/>
    </radialGradient>
    <linearGradient id="stockex_x" x1="17" y1="16" x2="49" y2="48" gradientUnits="userSpaceOnUse">
      <stop stop-color="#FFFFFF"/>
      <stop offset="0.55" stop-color="#ECF4FF"/>
      <stop offset="1" stop-color="#C4D8FF"/>
    </linearGradient>
    <filter id="stockex_shadow" x="-10%" y="-10%" width="120%" height="120%">
      <feDropShadow dx="0" dy="3" stdDeviation="4.5" flood-color="#000000" flood-opacity="0.52"/>
    </filter>
  </defs>
  <g filter="url(#stockex_shadow)">
    <rect x="1.5" y="1.5" width="61" height="61" rx="17" fill="url(#stockex_tile)" stroke="#FFFFFF" stroke-opacity="0.18"/>
  </g>
  <rect x="2.5" y="2.5" width="59" height="59" rx="16" fill="url(#stockex_glow)" opacity="0.72"/>
  <rect x="5.5" y="5.5" width="53" height="53" rx="14" fill="none" stroke="#2A2A2A" stroke-opacity="0.55"/>
  <rect x="9" y="9" width="46" height="46" rx="12" fill="url(#stockex_inner)" opacity="0.6"/>
  <path d="M18 18L46 46" stroke="url(#stockex_x)" stroke-width="4.8" stroke-linecap="round"/>
  <path d="M46 18L18 46" stroke="url(#stockex_x)" stroke-width="4.8" stroke-linecap="round"/>
  <path d="M20.5 18.8H39.2C42.7 18.8 45.5 21.6 45.5 25.1" stroke="#FFFFFF" stroke-opacity="0.22" stroke-width="1.3" stroke-linecap="round"/>
  <circle cx="44" cy="22.3" r="3.4" fill="#2F80FF"/>
  <circle cx="44" cy="22.3" r="1.15" fill="#FFFFFF" opacity="0.98"/>
</svg>
